<svg xmlns="http://www.w3.org/2000/svg" version="1.1" viewBox="-5.0 -10.0 110.0 135.0">
  <path d="m89.344 10.055h-9.1367v-5.3242c0-0.86328-0.69922-1.5625-1.5625-1.5625s-1.5625 0.69922-1.5625 1.5625v5.3242h-15.973v-5.3242c0-0.86328-0.69922-1.5625-1.5625-1.5625s-1.5625 0.69922-1.5625 1.5625v5.3242h-15.973v-5.3242c0-0.86328-0.69922-1.5625-1.5625-1.5625s-1.5625 0.69922-1.5625 1.5625v5.3242h-15.973v-5.3242c0-0.86328-0.69922-1.5625-1.5625-1.5625-0.86328 0-1.5625 0.69922-1.5625 1.5625v5.3242h-9.1367c-4.1523 0-7.5312 3.3789-7.5312 7.5312v71.758c0 4.1523 3.3789 7.5312 7.5312 7.5312h78.688c4.1523 0 7.5312-3.3789 7.5312-7.5312l0.003906-71.758c0-4.1523-3.3789-7.5312-7.5312-7.5312zm4.4062 79.289c0 2.4297-1.9766 4.4062-4.4062 4.4062h-78.688c-2.4297 0-4.4062-1.9766-4.4062-4.4062v-71.758c0-2.4297 1.9766-4.4062 4.4062-4.4062h9.1367v5.3242c0 0.86328 0.69922 1.5625 1.5625 1.5625s1.5625-0.69922 1.5625-1.5625v-5.3242h15.973v5.3242c0 0.86328 0.69922 1.5625 1.5625 1.5625s1.5625-0.69922 1.5625-1.5625v-5.3242h15.973v5.3242c0 0.86328 0.69922 1.5625 1.5625 1.5625s1.5625-0.69922 1.5625-1.5625v-5.3242h15.973v5.3242c0 0.86328 0.69922 1.5625 1.5625 1.5625 0.86328 0 1.5625-0.69922 1.5625-1.5625v-5.3242h9.1367c2.4297 0 4.4062 1.9766 4.4062 4.4062v71.758z" fill="#C17CEB"/>
  <path d="m27.391 34.836h-11.93c-0.86328 0-1.5625 0.69922-1.5625 1.5625v11.684c0 0.86328 0.69922 1.5625 1.5625 1.5625h11.93c0.86328 0 1.5625-0.69922 1.5625-1.5625v-11.684c0-0.86328-0.69922-1.5625-1.5625-1.5625zm-1.5625 11.684h-8.8047v-8.5586h8.8047z" fill="#C17CEB"/>
  <path d="m46.441 34.836h-11.93c-0.86328 0-1.5625 0.69922-1.5625 1.5625v11.684c0 0.86328 0.69922 1.5625 1.5625 1.5625h11.93c0.86328 0 1.5625-0.69922 1.5625-1.5625v-11.684c0-0.86328-0.69922-1.5625-1.5625-1.5625zm-1.5625 11.684h-8.8047v-8.5586h8.8047z" fill="#C17CEB"/>
  <path d="m65.488 34.836h-11.93c-0.86328 0-1.5625 0.69922-1.5625 1.5625v11.684c0 0.86328 0.69922 1.5625 1.5625 1.5625h11.93c0.86328 0 1.5625-0.69922 1.5625-1.5625v-11.684c0-0.86328-0.69922-1.5625-1.5625-1.5625zm-1.5625 11.684h-8.8047v-8.5586h8.8047z" fill="#C17CEB"/>
  <path d="m84.539 34.836h-11.93c-0.86328 0-1.5625 0.69922-1.5625 1.5625v11.684c0 0.86328 0.69922 1.5625 1.5625 1.5625h11.93c0.86328 0 1.5625-0.69922 1.5625-1.5625v-11.684c0-0.86328-0.69922-1.5625-1.5625-1.5625zm-1.5625 11.684h-8.8047v-8.5586h8.8047z" fill="#C17CEB"/>
  <path d="m27.391 53.359h-11.93c-0.86328 0-1.5625 0.69922-1.5625 1.5625v11.684c0 0.86328 0.69922 1.5625 1.5625 1.5625h11.93c0.86328 0 1.5625-0.69922 1.5625-1.5625v-11.684c0-0.86328-0.69922-1.5625-1.5625-1.5625zm-1.5625 11.684h-8.8047v-8.5586h8.8047z" fill="#C17CEB"/>
  <path d="m46.441 53.359h-11.93c-0.86328 0-1.5625 0.69922-1.5625 1.5625v11.684c0 0.86328 0.69922 1.5625 1.5625 1.5625h11.93c0.86328 0 1.5625-0.69922 1.5625-1.5625v-11.684c0-0.86328-0.69922-1.5625-1.5625-1.5625zm-1.5625 11.684h-8.8047v-8.5586h8.8047z" fill="#C17CEB"/>
  <path d="m65.488 53.359h-11.93c-0.86328 0-1.5625 0.69922-1.5625 1.5625v11.684c0 0.86328 0.69922 1.5625 1.5625 1.5625h11.93c0.86328 0 1.5625-0.69922 1.5625-1.5625v-11.684c0-0.86328-0.69922-1.5625-1.5625-1.5625zm-1.5625 11.684h-8.8047v-8.5586h8.8047z" fill="#C17CEB"/>
  <path d="m84.539 53.359h-11.93c-0.86328 0-1.5625 0.69922-1.5625 1.5625v11.684c0 0.86328 0.69922 1.5625 1.5625 1.5625h11.93c0.86328 0 1.5625-0.69922 1.5625-1.5625v-11.684c0-0.86328-0.69922-1.5625-1.5625-1.5625zm-1.5625 11.684h-8.8047v-8.5586h8.8047z" fill="#C17CEB"/>
  <path d="m27.391 71.883h-11.93c-0.86328 0-1.5625 0.69922-1.5625 1.5625v11.684c0 0.86328 0.69922 1.5625 1.5625 1.5625h11.93c0.86328 0 1.5625-0.69922 1.5625-1.5625v-11.684c0-0.86328-0.69922-1.5625-1.5625-1.5625zm-1.5625 11.68h-8.8047v-8.5586h8.8047z" fill="#C17CEB"/>
 <path d="m46.441 71.883h-11.93c-0.86328 0-1.5625 0.69922-1.5625 1.5625v11.684c0 0.86328 0.69922 1.5625 1.5625 1.5625h11.93c0.86328 0 1.5625-0.69922 1.5625-1.5625v-11.684c0-0.86328-0.69922-1.5625-1.5625-1.5625zm-1.5625 11.68h-8.8047v-8.5586h8.8047z" fill="#C17CEB"/>
 <path d="m65.488 71.883h-11.93c-0.86328 0-1.5625 0.69922-1.5625 1.5625v11.684c0 0.86328 0.69922 1.5625 1.5625 1.5625h11.93c0.86328 0 1.5625-0.69922 1.5625-1.5625v-11.684c0-0.86328-0.69922-1.5625-1.5625-1.5625zm-1.5625 11.68h-8.8047v-8.5586h8.8047z" fill="#C17CEB"/>
 <path d="m84.539 71.883h-11.93c-0.86328 0-1.5625 0.69922-1.5625 1.5625v11.684c0 0.86328 0.69922 1.5625 1.5625 1.5625h11.93c0.86328 0 1.5625-0.69922 1.5625-1.5625v-11.684c0-0.86328-0.69922-1.5625-1.5625-1.5625zm-1.5625 11.68h-8.8047v-8.5586h8.8047z" fill="#C17CEB"/>

</svg>
