<svg xmlns="http://www.w3.org/2000/svg" viewBox="0 0 24 30" fill="none" x="0px" y="0px"><path fill-rule="evenodd" clip-rule="evenodd" d="M7 3.5C6.17157 3.5 5.5 4.17157 5.5 5V7.5H5C4.72386 7.5 4.5 7.72386 4.5 8C4.5 8.27614 4.72386 8.5 5 8.5H5.5V8.66667V11.5H5C4.72386 11.5 4.5 11.7239 4.5 12C4.5 12.2761 4.72386 12.5 5 12.5H5.5V15.5H5C4.72386 15.5 4.5 15.7239 4.5 16C4.5 16.2761 4.72386 16.5 5 16.5H5.5V19C5.5 19.8284 6.17157 20.5 7 20.5H17C17.8284 20.5 18.5 19.8284 18.5 19V8.66667V5C18.5 4.17157 17.8284 3.5 17 3.5H7ZM6.5 16.5V19C6.5 19.2761 6.72386 19.5 7 19.5H17C17.2761 19.5 17.5 19.2761 17.5 19V8.66667V5C17.5 4.72386 17.2761 4.5 17 4.5H7C6.72386 4.5 6.5 4.72386 6.5 5V7.5H7C7.27614 7.5 7.5 7.72386 7.5 8C7.5 8.27614 7.27614 8.5 7 8.5H6.5V8.66667V11.5H7C7.27614 11.5 7.5 11.7239 7.5 12C7.5 12.2761 7.27614 12.5 7 12.5H6.5V15.5H7C7.27614 15.5 7.5 15.7239 7.5 16C7.5 16.2761 7.27614 16.5 7 16.5H6.5ZM12.3125 9.5C11.8983 9.5 11.5625 9.83579 11.5625 10.25C11.5625 10.6642 11.8983 11 12.3125 11C12.7267 11 13.0625 10.6642 13.0625 10.25C13.0625 9.83579 12.7267 9.5 12.3125 9.5ZM10.5625 10.25C10.5625 9.2835 11.346 8.5 12.3125 8.5C13.279 8.5 14.0625 9.2835 14.0625 10.25C14.0625 11.2165 13.279 12 12.3125 12C11.346 12 10.5625 11.2165 10.5625 10.25ZM12.3125 12.5C11.2516 12.5 10.2342 12.9214 9.48407 13.6716C8.86946 14.2862 8.47554 15.0802 8.35324 15.9305C8.2636 16.5537 8.78304 17 9.3125 17H12.3125H15.3125C15.842 17 16.3614 16.5537 16.2718 15.9305C16.1495 15.0802 15.7555 14.2862 15.1409 13.6716C14.3908 12.9214 13.3734 12.5 12.3125 12.5ZM10.1912 14.3787C10.7538 13.8161 11.5169 13.5 12.3125 13.5C13.1081 13.5 13.8712 13.8161 14.4338 14.3787C14.8772 14.822 15.1674 15.3898 15.2706 16H12.3125H9.35444C9.45758 15.3898 9.74785 14.822 10.1912 14.3787Z" fill="black"/></svg>