<svg xmlns="http://www.w3.org/2000/svg" version="1.1" viewBox="-5.0 -10.0 110.0 135.0">
 <path d="m50 4.4023c10.742 0 20.516 1.6562 27.629 4.3359 7.7891 2.9336 12.465 7.1406 12.535 12.141v57.406c0 4.9688-4.9023 9.5156-12.797 12.664-15.543 6.1953-39.188 6.1953-54.73 0-7.8945-3.1484-12.797-7.6992-12.797-12.664v-57.406c0.066406-5.0039 4.7461-9.2109 12.535-12.141 7.1094-2.6797 16.883-4.3359 27.625-4.3359zm35.82 24.168c-14.395 11.695-57.242 11.695-71.641 0v11.727c0 2.9531 3.7148 5.8281 9.7188 8.0898 14.328 5.3945 37.871 5.3945 52.199 0 6.0039-2.2617 9.7188-5.1367 9.7188-8.0898zm-71.641 19.414v11.727c0 2.9531 3.7148 5.8281 9.7188 8.0898 14.328 5.3945 37.871 5.3945 52.199 0 6.0039-2.2617 9.7188-5.1367 9.7188-8.0898l0.003906-11.727c-14.395 11.695-57.246 11.695-71.641 0zm0 19.414v10.883c0 3.0469 3.8477 6.1758 10.051 8.6445 14.473 5.7695 37.07 5.7695 51.539 0 6.1992-2.4727 10.051-5.6016 10.051-8.6445v-10.883c-14.395 11.695-57.246 11.695-71.641 0zm61.922-54.609c-14.332-5.3945-37.871-5.3945-52.199 0-12.941 4.8711-12.934 11.309 0 16.18 14.332 5.3945 37.871 5.3945 52.199 0 12.93-4.8711 12.941-11.305 0-16.18zm-61.922 8.0898zm71.641 0" fill-rule="evenodd" fill="#ff6080"/>
</svg>