<svg xmlns="http://www.w3.org/2000/svg" version="1.1" viewBox="0 0 64 80" x="0px" y="0px"><title>download</title><path d="M27.294 5.724c-1.243 0-2.271 1.042-2.271 2.276v19.375h-6.198c-0.91 0-1.752 0.544-2.104 1.406-0.343 0.839-0.156 1.823 0.495 2.474l13.182 13.182c0.442 0.435 1.013 0.658 1.599 0.661h0.011c0.576-0.003 1.166-0.233 1.599-0.667l13.177-13.177c0.642-0.642 0.852-1.622 0.495-2.479-0.352-0.844-1.191-1.401-2.099-1.401h-6.198v-19.375c0-1.243-1.033-2.276-2.276-2.276zM29.57 10.276h4.865v19.37c0 1.243 1.033 2.276 2.276 2.276h2.979l-7.688 7.688-7.688-7.688h2.979c1.243 0 2.276-1.033 2.276-2.276zM4.706 37.724c-1.243 0-2.276 1.033-2.276 2.276v16c0 1.243 1.033 2.276 2.276 2.276h54.589c1.243 0 2.276-1.033 2.276-2.276v-16c0-1.243-1.033-2.276-2.276-2.276h-13.49c-1.243 0-2.276 1.033-2.276 2.276s1.033 2.276 2.276 2.276h11.219v11.448h-50.042v-11.448h11.214c1.243 0 2.276-1.033 2.276-2.276s-1.033-2.276-2.276-2.276z" fill="#ffffff"/></svg>