<svg xmlns="http://www.w3.org/2000/svg" version="1.1" viewBox="0 0 100 100">
 <path d="m49.297 28.688 31.676 12.312-31.672 12.391-31.672-12.395zm-23.719 21.242 22.562 8.8281c0.35547 0.16406 0.75 0.25391 1.1484 0.25391h0.050782 0.039062 0.003906c0.36719-0.011719 0.72656-0.097657 1.0547-0.24609l22.582-8.8359c0.56641 3.7148 0.87109 7.6641 0.87109 11.809 0 2.1523-0.082031 4.2539-0.24219 6.2969h-0.003907c-8.582 0.25391-16.922 1.4375-24.348 3.418-7.4258-1.9805-15.766-3.1602-24.344-3.418h-0.003906c-0.15625-2.0469-0.23828-4.1445-0.23828-6.2969 0-4.1445 0.30469-8.0938 0.86719-11.809zm23.723-26.855-0.011719 0.003906h-0.023437c-0.31641 0-0.63281 0.058594-0.94531 0.17969l-39.129 15.207c-1.0391 0.40234-1.7266 1.4023-1.7266 2.5195s0.68359 2.1172 1.7227 2.5234l11.266 4.418c-0.75781 4.4414-1.1602 9.0898-1.1602 13.812 0 3.1055 0.17188 6.1719 0.50781 9.1797v0.003906c0.11328 1.3906 1.2773 2.4844 2.6992 2.4844h0.15234c9.7656 0.097656 18.504 1.3633 25.828 3.3867h0.007812c0.25781 0.078125 0.53125 0.125 0.8125 0.125 0.26562 0 0.51562-0.035157 0.75781-0.10547h0.003906c7.332-2.0352 16.113-3.3008 25.895-3.4062h0.14062c1.3633 0 2.4883-1.0039 2.6797-2.3125v-0.003906c0.34766-3.0625 0.52734-6.1875 0.52734-9.3516 0-4.7227-0.39844-9.3672-1.1602-13.816l7.5859-2.9688v3.0625c-0.84766 0.75-1.3789 1.8438-1.3789 3.0586v0.003906c0 1.1289 0.46094 2.1562 1.2031 2.8945l-0.97266 2.4961c-0.125 0.3125-0.19141 0.64844-0.19141 0.98828 0 0.125 0.007813 0.24219 0.023437 0.35547v0.003906c0.03125 0.21484 0.085938 0.42188 0.16406 0.625l1.3438 3.4609c0.40234 1.0391 1.4023 1.7227 2.5117 1.7227h0.003906c1.1094 0 2.1094-0.67969 2.5156-1.7148l1.3516-3.457c0.10547-0.26172 0.16797-0.53906 0.18359-0.83203v-0.003906c0.003907-0.050782 0.007813-0.10156 0.007813-0.15625v-0.011719-0.027344c-0.003906-0.015625-0.003906-0.03125-0.003906-0.046875v-0.003906c-0.007813-0.3125-0.074219-0.62109-0.1875-0.91016l-0.98047-2.4844c0.74609-0.73828 1.2109-1.7656 1.2109-2.8984v-0.003906c0-1.2148-0.53516-2.3086-1.3789-3.0586l-0.003906-7.0195c0-1.1562-0.72656-2.1445-1.7422-2.5312l-38.969-15.141c-0.35547-0.16406-0.74219-0.25-1.1406-0.25z" fill="#269fff"/></svg>