<svg xmlns="http://www.w3.org/2000/svg" version="1.1" viewBox="0 10 100 80" >
  <path d="m88.66 82.555h-77.32c-4.2617-0.003907-7.7109-3.4531-7.7188-7.7148v-49.68c0.007812-4.2617 3.457-7.7109 7.7188-7.7148h77.32c4.2617 0.003907 7.7109 3.4531 7.7188 7.7148v49.68c-0.007812 4.2617-3.457 7.7109-7.7188 7.7148zm-74.391-6.25h71.457l-21.637-21.863-8.6016 8.6953c-3.0273 3.0273-7.9336 3.0312-10.965 0.011719l-8.6133-8.707zm54.219-26.305 21.637 21.867 0.003906-43.734zm-58.617-21.867v43.734l21.641-21.867zm4.4023-4.4375 34.68 35.047c0.58594 0.57031 1.5234 0.56641 2.1055-0.015626l34.668-35.031z" fill="#6AB5B9"/>
  <text x="0.0" y="117.5" font-size="5.0" font-weight="bold" font-family="Arbeit Regular, Helvetica, Arial-Unicode, Arial, Sans-serif" fill="#000000"></text>
  <text x="0.0" y="122.5" font-size="5.0" font-weight="bold" font-family="Arbeit Regular, Helvetica, Arial-Unicode, Arial, Sans-serif" fill="#000000"></text>
</svg>
