<svg xmlns:inkscape="http://www.inkscape.org/namespaces/inkscape" xmlns:sodipodi="http://sodipodi.sourceforge.net/DTD/sodipodi-0.dtd" xmlns="http://www.w3.org/2000/svg" xmlns:svg="http://www.w3.org/2000/svg" xmlns:rdf="http://www.w3.org/1999/02/22-rdf-syntax-ns#" xmlns:cc="http://creativecommons.org/ns#" xmlns:dc="http://purl.org/dc/elements/1.1/" viewBox="0 0 16.933333 21.1666675" version="1.1" x="0px" y="0px"><g><path style="color:#000000;" d="m 8.4702166,1.4635407 a 0.26433451,0.26488292 0 0 0 -0.2495971,0.17777 l -0.4883422,1.40663 -1.4856976,0.0305 a 0.26433451,0.26488292 0 0 0 -0.1545124,0.47645 l 1.1844236,0.89969 -0.4299479,1.42472 a 0.26433451,0.26488292 0 0 0 0.4041098,0.29456 l 1.2195638,-0.85112 1.219047,0.85112 a 0.26433451,0.26488292 0 0 0 0.4046264,-0.29456 l -0.4304645,-1.42472 1.1849405,-0.89969 a 0.26433451,0.26488292 0 0 0 -0.15503,-0.47645 l -1.4851799,-0.0305 -0.4888592,-1.40663 a 0.26433451,0.26488292 0 0 0 -0.2490803,-0.17777 z m 0,1.07125 0.2986897,0.86145 a 0.26433451,0.26488292 0 0 0 0.2444295,0.17777 l 0.9089884,0.0181 -0.7250202,0.55139 a 0.26433451,0.26488292 0 0 0 -0.093018,0.28732 l 0.2635499,0.87282 -0.7467243,-0.52091 a 0.26433451,0.26488292 0 0 0 -0.3023074,0 l -0.7467242,0.52091 0.2635498,-0.87282 a 0.26433451,0.26488292 0 0 0 -0.093018,-0.28732 l -0.7250202,-0.55139 0.9089884,-0.0181 a 0.26433451,0.26488292 0 0 0 0.2444295,-0.17777 z m -5.5087075,2.67942 a 0.26321059,0.26601311 0 0 0 -0.2485639,0.17829 l -0.4103108,1.19527 -1.2516032,0.0253 a 0.26321059,0.26601311 0 0 0 -0.15347899,0.47749 l 0.99735529,0.7643 -0.3627686,1.21026 a 0.26321059,0.26601311 0 0 0 0.4020426,0.29611 l 1.0273276,-0.72296 1.0273273,0.72296 a 0.26321059,0.26601311 0 0 0 0.4025593,-0.29611 l -0.3627683,-1.21026 0.997355,-0.7643 a 0.26321059,0.26601311 0 0 0 -0.1539957,-0.47749 l -1.2510865,-0.0253 -0.4108275,-1.19527 a 0.26321059,0.26601311 0 0 0 -0.2485636,-0.17829 z m 11.0096629,0.002 a 0.26321059,0.26601311 0 0 0 -0.248563,0.17777 l -0.410827,1.19528 -1.251087,0.0253 a 0.26321059,0.26601311 0 0 0 -0.153996,0.47801 l 0.997355,0.76429 -0.362767,1.20975 a 0.26321059,0.26601311 0 0 0 0.402558,0.2961 l 1.027327,-0.72295 1.027329,0.72295 a 0.26321059,0.26601311 0 0 0 0.402043,-0.2961 l -0.362771,-1.20975 0.997355,-0.76429 a 0.26321059,0.26601311 0 0 0 -0.153477,-0.47801 l -1.251603,-0.0253 -0.410311,-1.19528 a 0.26321059,0.26601311 0 0 0 -0.248565,-0.17777 z m -11.0096629,1.07436 0.2227252,0.64699 a 0.26321059,0.26601311 0 0 0 0.243396,0.1788 l 0.6759279,0.0134 -0.5389854,0.41342 a 0.26321059,0.26601311 0 0 0 -0.093017,0.28886 l 0.1963705,0.65578 -0.5560385,-0.39171 a 0.26321059,0.26601311 0 0 0 -0.3002402,0 l -0.5560382,0.39068 0.1958535,-0.65475 a 0.26321059,0.26601311 0 0 0 -0.093017,-0.28886 l -0.5389853,-0.41342 0.6764445,-0.0134 a 0.26321059,0.26601311 0 0 0 0.2433961,-0.1788 z m 11.0096629,0.002 0.22221,0.64647 a 0.26321059,0.26601311 0 0 0 0.243396,0.1788 l 0.676444,0.0134 -0.538985,0.41341 a 0.26321059,0.26601311 0 0 0 -0.09302,0.28887 l 0.195852,0.65577 -0.556038,-0.3917 a 0.26321059,0.26601311 0 0 0 -0.300241,0 l -0.556038,0.39119 0.196372,-0.65526 a 0.26321059,0.26601311 0 0 0 -0.09302,-0.28887 l -0.538986,-0.41341 0.675926,-0.0134 a 0.26321059,0.26601311 0 0 0 0.243398,-0.1788 z m -5.5319612,0.9834 c -1.1068481,0 -2.0096964,0.9008 -2.0096964,2.00608 0,0.69038 0.3520298,1.3008403 0.8862508,1.6619103 -1.4055559,0.46805 -2.4174236,1.79049 -2.4174236,3.35174 v 0.90847 a 0.26461045,0.26461045 0 0 0 0.2656168,0.26562 H 11.71653 a 0.26461045,0.26461045 0 0 0 0.263549,-0.26562 v -0.90847 c 0,-1.56123 -1.011904,-2.88367 -2.4174227,-3.35174 0.5349907,-0.36104 0.8883177,-0.9713703 0.8883177,-1.6619103 0,-1.10528 -0.9049153,-2.00608 -2.0117632,-2.00608 z m 0,0.52968 c 0.8215289,0 1.4825967,0.65777 1.4825967,1.4764 0,0.8186203 -0.6610678,1.4784603 -1.4825967,1.4784603 -0.8215291,0 -1.48053,-0.65984 -1.4805297,-1.4784603 0,-0.81863 0.6590006,-1.4764 1.4805297,-1.4764 z m 0,3.4861003 c 1.6734492,0 3.0117012,1.33537 3.0117012,3.00395 v 0.6444 H 5.4275083 v -0.6444 c 0,-1.66858 1.3382513,-3.00395 3.0117025,-3.00395 z" fill="#269fff" stroke-width="1" stroke-linecap="round" stroke-linejoin="round"/></g></svg>