<svg xmlns="http://www.w3.org/2000/svg" xmlns:xlink="http://www.w3.org/1999/xlink" version="1.1" x="0px" y="0px" viewBox="0 0 24 24" style="enable-background:new 0 0 24 24;" xml:space="preserve">
<path d="M11,11.9V18h2v-6.1c2.3-0.5,4-2.5,4-4.9c0-2.8-2.2-5-5-5S7,4.2,7,7C7,9.4,8.7,11.4,11,11.9z M12,4c1.7,0,3,1.3,3,3  s-1.3,3-3,3S9,8.7,9,7S10.3,4,12,4z M22,16.8c-0.1-0.7-0.5-1.3-0.9-1.7c-0.9-1-2.5-1.6-4.3-2.1L16.3,15c1.6,0.4,2.8,1,3.3,1.5  c0.3,0.3,0.4,0.5,0.4,0.6c0,0.1,0,0.3-0.1,0.5c-0.3,0.5-1.2,1.1-2.7,1.6C15.7,19.7,13.9,20,12,20c-1.9,0-3.7-0.3-5.2-0.7  c-1.5-0.5-2.4-1.1-2.7-1.6C4,17.5,4,17.3,4,17.2c0-0.1,0.1-0.4,0.4-0.6C5,15.9,6.1,15.4,7.7,15L7.3,13c-1.8,0.4-3.3,1.1-4.3,2.1  c-0.5,0.5-0.8,1.1-0.9,1.7c-0.1,0.7,0.1,1.3,0.4,1.9c0.7,1.1,2.1,1.9,3.8,2.4C7.9,21.7,9.9,22,12,22c2.1,0,4.1-0.3,5.8-0.8  c1.6-0.5,3-1.3,3.8-2.4C21.9,18.2,22.1,17.5,22,16.8z" fill="#FD7590"/></svg>