<svg xmlns="http://www.w3.org/2000/svg" version="1.1" viewBox="-5.0 -10.0 110.0 135.0">
 <path d="m65.762 67.09c-1.0156-0.9375-2.1133-1.7852-3.2812-2.5273-0.48828 1.293-1.043 2.5039-1.6484 3.6133-0.70703 1.2969-1.4922 2.4609-2.3438 3.4766 2.7109-1.0664 5.1719-2.6211 7.2734-4.5625zm-39.996 7.2695c-0.023437-0.019531-0.042969-0.039063-0.066406-0.0625-0.019531-0.023437-0.039063-0.042969-0.058594-0.066406-0.69531-0.66016-1.5859-0.98828-2.4805-0.98828-0.92188 0-1.8438 0.35156-2.5469 1.0508-0.69922 0.69922-1.0508 1.625-1.0508 2.543 0 0.92578 0.35156 1.8438 1.0508 2.5469 0.70312 0.69922 1.625 1.0469 2.5469 1.0469s1.8438-0.35156 2.5469-1.0469l-0.003906-0.003906c0.70312-0.70312 1.0547-1.625 1.0547-2.543-0.003906-0.89063-0.33203-1.7812-0.99219-2.4766zm0.85156-3.0508 3.8633-3.8633c-3.8398-4.2891-6.2812-9.8555-6.6211-15.984h-5.457c-0.27734 1.2148-0.89453 2.3008-1.7461 3.1484h-0.007812c-1.1797 1.1797-2.8125 1.9141-4.6094 1.9141-1.8008 0-3.4336-0.73047-4.6133-1.9141-1.1836-1.1758-1.9141-2.8086-1.9141-4.6094s0.73047-3.4297 1.9102-4.6094l0.003906-0.003906c1.1797-1.1836 2.8125-1.9141 4.6133-1.9141 1.8008 0 3.4297 0.73047 4.6094 1.9141h0.007812c0.85156 0.85156 1.4688 1.9336 1.7461 3.1484h5.457c0.33594-6.125 2.7812-11.691 6.6211-15.984l-3.8633-3.8633c-1.0547 0.66406-2.2578 0.99609-3.4609 0.99609-1.6719 0-3.3398-0.63672-4.6172-1.9141v-0.007812c-1.2734-1.2734-1.9102-2.9414-1.9102-4.6094 0-1.668 0.63672-3.3359 1.9102-4.6094l0.007813-0.007813c1.2734-1.2734 2.9414-1.9102 4.6094-1.9102s3.3359 0.63672 4.6094 1.9102l0.007813 0.007813c1.2734 1.2773 1.9102 2.9453 1.9102 4.6094 0 1.1992-0.33203 2.4062-0.99609 3.457l3.8633 3.8633c4.293-3.8359 9.8555-6.2812 15.98-6.6211v-5.457c-1.2148-0.27734-2.3008-0.89453-3.1484-1.7461-1.1797-1.1797-1.9102-2.8125-1.9102-4.6133 0-1.8008 0.73047-3.4297 1.9102-4.6094h0.003907c1.1797-1.1836 2.8125-1.9141 4.6133-1.9141s3.4336 0.73047 4.6133 1.9141v0.003907c1.1797 1.1836 1.9102 2.8125 1.9102 4.6094 0 1.8008-0.73047 3.4336-1.9102 4.6133h-0.003906c-0.85156 0.85156-1.9336 1.4648-3.1445 1.7461v5.457c6.125 0.33594 11.691 2.7852 15.984 6.6211l3.8633-3.8633c-0.66406-1.0547-0.99609-2.2578-0.99609-3.457 0-1.668 0.63672-3.3359 1.9102-4.6094l0.007813-0.007813c1.2734-1.2734 2.9414-1.9102 4.6094-1.9102s3.3359 0.63672 4.6094 1.9102l0.007813 0.007813c1.2734 1.2773 1.9102 2.9453 1.9102 4.6094 0 1.668-0.63672 3.3359-1.9102 4.6094l-0.007813 0.007813c-1.2734 1.2773-2.9414 1.9141-4.6094 1.9141-1.2031 0-2.4062-0.33203-3.4609-0.99219l-3.8594 3.8594c3.8398 4.2891 6.2812 9.8555 6.6211 15.984h5.4609c0.27734-1.2109 0.89453-2.293 1.7461-3.1445l-0.007812-0.007812c1.1797-1.1836 2.8125-1.9141 4.6133-1.9141 1.7969 0 3.4297 0.73047 4.6094 1.9141h0.007813c1.1797 1.1797 1.9102 2.8125 1.9102 4.6133 0 1.8047-0.73047 3.4336-1.9102 4.6133h-0.007813c-1.1797 1.1797-2.8125 1.9141-4.6094 1.9141-1.8008 0-3.4336-0.73047-4.6133-1.9141-0.85156-0.85156-1.4688-1.9336-1.7461-3.1484h-5.457c-0.33594 6.125-2.7812 11.691-6.6211 15.984l3.8633 3.8633c1.0547-0.66406 2.2578-0.99609 3.4609-0.99609 1.668 0 3.3359 0.63672 4.6094 1.9102l0.007813 0.007813c1.2734 1.2773 1.9102 2.9453 1.9102 4.6094 0 1.668-0.63672 3.3359-1.9102 4.6094l-0.007813 0.003906c-1.2734 1.2773-2.9453 1.9141-4.6094 1.9141s-3.3359-0.63672-4.6094-1.9141h-0.007813c-1.2734-1.2734-1.9102-2.9453-1.9102-4.6133 0-1.2031 0.33203-2.4062 0.99609-3.4609l-3.8633-3.8633c-4.293 3.8398-9.8555 6.2812-15.984 6.6211v5.457c1.2148 0.27734 2.3008 0.89453 3.1484 1.7461v0.007812c1.1797 1.1836 1.9102 2.8125 1.9102 4.6094 0 1.8008-0.73047 3.4336-1.9102 4.6133h-0.003906c-1.1797 1.1836-2.8125 1.9141-4.6094 1.9141-1.8008 0-3.4336-0.73047-4.6133-1.9141-1.1797-1.1797-1.9102-2.8125-1.9102-4.6133 0-1.8008 0.73047-3.4297 1.9102-4.6094v-0.007812c0.85156-0.85156 1.9336-1.4648 3.1484-1.7461v-5.457c-6.125-0.33594-11.691-2.7812-15.98-6.6211l-3.8633 3.8633c0.66406 1.0547 0.99609 2.2578 0.99609 3.4609 0 1.6719-0.63672 3.3398-1.9102 4.6133h-0.007813c-1.2734 1.2773-2.9414 1.9141-4.6094 1.9141-1.668 0-3.3359-0.63672-4.6094-1.9141l-0.007812-0.003906c-1.2734-1.2773-1.9102-2.9453-1.9102-4.6094 0-1.668 0.63672-3.3359 1.9102-4.6094l0.007812-0.007813c1.2734-1.2734 2.9414-1.9102 4.6094-1.9102 1.1992 0 2.4023 0.32812 3.457 0.99219zm47.617-45.668c0.023437 0.019531 0.042969 0.039063 0.066406 0.0625 0.70312 0.70312 1.6211 1.0547 2.543 1.0547s1.8438-0.35156 2.5469-1.0508c0.69922-0.70312 1.0508-1.625 1.0508-2.543 0-0.92578-0.35156-1.8438-1.0508-2.5469-0.69922-0.69922-1.625-1.0508-2.5469-1.0508s-1.8438 0.35156-2.5469 1.0508c-0.69922 0.70312-1.0508 1.625-1.0508 2.5469 0 0.89063 0.32812 1.7812 0.98828 2.4766zm0.125 48.594c-0.019531 0.023437-0.039063 0.042969-0.0625 0.066406-0.023437 0.019531-0.042969 0.039063-0.066406 0.0625-0.66016 0.69531-0.98828 1.5859-0.98828 2.4805 0 0.91797 0.35156 1.8398 1.0547 2.543l-0.003906 0.003906c0.70312 0.69922 1.625 1.0469 2.5469 1.0469s1.8438-0.35156 2.5469-1.0469c0.69922-0.70312 1.0508-1.625 1.0508-2.5469s-0.35156-1.8438-1.0508-2.543-1.625-1.0508-2.5469-1.0508c-0.89453-0.007812-1.7891 0.32422-2.4805 0.98438zm-48.719-48.469c0.019531-0.023437 0.039063-0.042969 0.0625-0.066406 0.023437-0.023438 0.042969-0.039063 0.066406-0.0625 0.66016-0.69531 0.98828-1.5859 0.98828-2.4805 0-0.92578-0.35156-1.8438-1.0508-2.5469-0.70312-0.69922-1.625-1.0508-2.5469-1.0508s-1.8438 0.35156-2.5469 1.0508c-0.69922 0.70312-1.0508 1.625-1.0508 2.5469s0.35156 1.8438 1.0508 2.543l0.003907-0.003907c0.70312 0.70313 1.6211 1.0547 2.543 1.0547 0.89453 0.007812 1.7852-0.32422 2.4805-0.98438zm64.863 26.777-0.003906-0.003907c0.65234-0.65234 1.0547-1.5508 1.0547-2.543 0-0.99219-0.40234-1.8906-1.0547-2.543l0.003906-0.003906c-0.64844-0.64844-1.5508-1.0508-2.5469-1.0508-0.99219 0-1.8906 0.40234-2.543 1.0547l-0.003906-0.003906c-0.64844 0.64844-1.0508 1.5508-1.0508 2.543 0 0.99219 0.40234 1.8906 1.0547 2.543 0.65234 0.64844 1.5508 1.0508 2.543 1.0508 0.99609 0.007812 1.8984-0.39063 2.5469-1.043zm-75.918 0h-0.003907c0.65234-0.65234 1.0547-1.5508 1.0547-2.543s-0.40234-1.8906-1.0547-2.543l0.003907-0.003906c-0.64844-0.64844-1.5508-1.0508-2.5469-1.0508-0.99219 0-1.8906 0.40234-2.543 1.0547l-0.003906-0.003906c-0.64844 0.65234-1.0508 1.5508-1.0508 2.5469 0 0.99219 0.40234 1.8906 1.0547 2.543 0.65234 0.64844 1.5508 1.0508 2.543 1.0508 0.99609 0 1.8945-0.39844 2.5469-1.0508zm37.961-43.047-0.003906 0.003906c-0.65234-0.65234-1.5508-1.0586-2.543-1.0586s-1.8906 0.40234-2.543 1.0547l-0.003906-0.003906c-0.64844 0.64844-1.0508 1.5508-1.0508 2.543 0 0.99219 0.40234 1.8906 1.0547 2.543 0.65234 0.65234 1.5508 1.0547 2.543 1.0547 0.99609 0 1.8945-0.40234 2.543-1.0508 0.65234-0.65234 1.0547-1.5508 1.0547-2.543 0-0.99219-0.40234-1.8945-1.0508-2.543zm0 75.918-0.003906 0.003907c-0.65234-0.65234-1.5508-1.0547-2.543-1.0547s-1.8906 0.40234-2.543 1.0547l-0.003906-0.003907c-0.64844 0.65234-1.0508 1.5508-1.0508 2.5469 0 0.99219 0.40234 1.8906 1.0547 2.543 0.65234 0.65234 1.5508 1.0547 2.543 1.0547 0.99609 0 1.8945-0.40234 2.543-1.0508l-0.003907-0.003906c0.65234-0.65234 1.0547-1.5508 1.0547-2.543 0.003906-0.99609-0.39844-1.8984-1.0469-2.5469zm-11.035-13.762c-0.85156-1.0156-1.6367-2.1797-2.3438-3.4766-0.60547-1.1094-1.1602-2.3203-1.6484-3.6133-1.168 0.74609-2.2656 1.5898-3.2812 2.5273 2.1016 1.9414 4.5625 3.4961 7.2734 4.5625zm-9.2969-6.6758c1.332-1.2344 2.7969-2.332 4.3672-3.2695-0.87891-3.1094-1.418-6.5781-1.5312-10.242h-8.2539c0.31641 5.1328 2.3047 9.8164 5.418 13.512zm-5.4219-16.441h8.2539c0.11719-3.7617 0.68359-7.3164 1.6016-10.492-1.543-0.91406-2.9805-1.9844-4.2969-3.1836-3.1914 3.7227-5.2344 8.4648-5.5586 13.676zm7.6016-15.773c0.99609 0.90234 2.0703 1.7227 3.2148 2.4453 0.46484-1.207 0.98828-2.3359 1.5586-3.3828 0.70703-1.2969 1.4922-2.4609 2.3438-3.4766-2.6445 1.0352-5.0508 2.543-7.1172 4.4141zm24.098-4.4141c0.85156 1.0156 1.6328 2.1797 2.3438 3.4766 0.57031 1.043 1.0938 2.1758 1.5586 3.3789 1.1406-0.71875 2.2148-1.5391 3.2109-2.4414-2.0664-1.8711-4.4727-3.3789-7.1133-4.4141zm9.1523 6.5117c-1.3164 1.1992-2.7539 2.2695-4.2969 3.1836 0.91797 3.1719 1.4844 6.7266 1.6016 10.492h8.2539c-0.32422-5.2109-2.3633-9.9531-5.5586-13.676zm5.5586 16.605h-8.2539c-0.11328 3.668-0.65234 7.1367-1.5312 10.242 1.5703 0.9375 3.0312 2.0352 4.3633 3.2695 3.1172-3.6953 5.1055-8.3789 5.4219-13.512zm-21.738-24.535v11.801c2.6797-0.16406 5.2305-0.77734 7.5742-1.7695 0.25781-0.10938 0.51172-0.22266 0.76563-0.33984-0.45313-1.2227-0.96875-2.3594-1.5352-3.3945-1.8438-3.375-4.2148-5.6641-6.8047-6.2969zm0 14.734v6.8711h10.555c-0.10547-3.2695-0.57031-6.3516-1.3203-9.1172-0.17578 0.078125-0.35156 0.15234-0.52734 0.23047-2.707 1.1445-5.6406 1.8438-8.707 2.0156zm0 9.8008v6.582c3.0664 0.16797 6 0.87109 8.707 2.0156 0.19922 0.085938 0.39844 0.17188 0.59766 0.26172 0.70703-2.6992 1.1484-5.6914 1.25-8.8594zm0 9.5156v12.09c2.5898-0.63281 4.9609-2.9219 6.8047-6.293 0.60547-1.1094 1.1523-2.3281 1.6289-3.6445-0.28516-0.13281-0.57031-0.26172-0.85938-0.38281-2.3438-0.98828-4.8945-1.6055-7.5742-1.7695zm-2.9297 12.09v-12.09c-2.6797 0.16406-5.2305 0.78125-7.5742 1.7695-0.28906 0.12109-0.57422 0.25-0.85547 0.38281 0.47656 1.3164 1.0195 2.5352 1.6289 3.6445 1.8398 3.3711 4.2109 5.6602 6.8008 6.293zm0-15.023v-6.582h-10.555c0.10547 3.1641 0.54297 6.1562 1.25 8.8594 0.19922-0.089844 0.39844-0.17578 0.59766-0.26172 2.707-1.1445 5.6406-1.8477 8.707-2.0156zm0-9.5117v-6.8711c-3.0664-0.17187-6-0.87109-8.707-2.0156-0.17578-0.074219-0.35156-0.15234-0.52734-0.23047-0.74609 2.7656-1.2109 5.8477-1.3203 9.1172zm0-9.8047v-11.801c-2.5898 0.63281-4.9609 2.9219-6.8047 6.293-0.56641 1.0391-1.082 2.1758-1.5352 3.3945 0.25391 0.12109 0.50781 0.23047 0.76563 0.33984 2.3438 0.99219 4.8945 1.6055 7.5742 1.7734z" fill="#dda10c"/>
</svg>