<svg xmlns="http://www.w3.org/2000/svg" xmlns:xlink="http://www.w3.org/1999/xlink" xml:space="preserve" version="1.1" style="shape-rendering:geometricPrecision;text-rendering:geometricPrecision;image-rendering:optimizeQuality;" viewBox="0 0 333.33 416.66249999999997" x="0px" y="0px" fill-rule="evenodd" clip-rule="evenodd"><defs><style type="text/css">
   
    .fil0 {fill:#E93B81;fill-rule:nonzero;stroke:#E93B81; stroke-width:7;}
   
  </style></defs><g><path class="fil0" d="M101.67 10.02l130 0c9.15,0 17.48,3.75 23.52,9.78 6.06,6.07 9.81,14.39 9.81,23.55l0 246.62c0,9.15 -3.75,17.48 -9.78,23.52 -6.07,6.06 -14.39,9.81 -23.55,9.81l-130 0c-9.15,0 -17.48,-3.75 -23.52,-9.78 -6.06,-6.07 -9.81,-14.39 -9.81,-23.55l0 -246.62c0,-9.15 3.75,-17.48 9.78,-23.52 6.07,-6.06 14.39,-9.81 23.55,-9.81zm65 237.2c5.81,0 11.09,2.36 14.9,6.17 3.81,3.81 6.17,9.08 6.17,14.9 0,5.82 -2.36,11.09 -6.17,14.9l-0.46 0.42c-3.78,3.57 -8.87,5.75 -14.44,5.75 -5.79,0 -11.05,-2.36 -14.87,-6.17l-0.04 -0.04c-3.8,-3.82 -6.16,-9.07 -6.16,-14.85 0,-5.79 2.37,-11.06 6.19,-14.88 3.8,-3.83 9.06,-6.19 14.88,-6.19zm5.47 15.6c-1.4,-1.4 -3.34,-2.27 -5.47,-2.27 -2.14,0 -4.07,0.87 -5.47,2.27 -1.41,1.38 -2.27,3.32 -2.27,5.47 0,2.15 0.86,4.09 2.24,5.47 1.41,1.41 3.35,2.27 5.5,2.27 2.02,0 3.85,-0.76 5.21,-1.99l0.26 -0.28c1.4,-1.4 2.27,-3.33 2.27,-5.47 0,-2.13 -0.87,-4.07 -2.27,-5.47zm-19.67 -213.46c-3.67,0 -6.64,-2.97 -6.64,-6.64 0,-3.67 2.97,-6.64 6.64,-6.64l28.39 -0.01c3.67,0 6.64,2.97 6.64,6.64 0,3.67 -2.97,6.64 -6.64,6.64l-28.39 0.01zm79.19 -26.01l-130 0c-5.5,0 -10.51,2.25 -14.13,5.87 -3.61,3.62 -5.87,8.63 -5.87,14.13l0 246.62c0,5.5 2.25,10.51 5.87,14.13 3.62,3.61 8.63,5.87 14.13,5.87l130 0c5.5,0 10.51,-2.25 14.13,-5.87 3.61,-3.62 5.87,-8.63 5.87,-14.13l0 -246.62c0,-5.5 -2.25,-10.51 -5.87,-14.13 -3.62,-3.61 -8.63,-5.87 -14.13,-5.87z"/></g><text x="0" y="348.33" fill="#000000" font-size="5px" font-weight="bold" font-family="'Helvetica Neue', Helvetica, Arial-Unicode, Arial, Sans-serif"></text><text x="0" y="353.33" fill="#000000" font-size="5px" font-weight="bold" font-family="'Helvetica Neue', Helvetica, Arial-Unicode, Arial, Sans-serif"></text></svg>