<svg xmlns="http://www.w3.org/2000/svg" version="1.1" viewBox="-5.0 -10.0 110.0 135.0">
 <g>
  <path d="m50 44.809c-15.988 0-29 13.129-29 29.281 0 3.0117 1.6719 7.2188 9.6484 10.191 5.1289 1.9102 12 2.9609 19.352 2.9609 14.43 0 29-4.0703 29-13.148 0-16.152-13.012-29.285-29-29.285zm0 38.93c-14.539 0-25.512-4.1484-25.512-9.6602 0-14.207 11.441-25.777 25.512-25.777s25.512 11.57 25.512 25.789c0 5.5-10.973 9.6484-25.512 9.6484z"/>
  <path d="m50 42.211c8.1211 0 14.719-6.6016 14.719-14.719 0-8.1211-6.5977-14.723-14.719-14.723s-14.719 6.6094-14.719 14.719c0 8.1133 6.5977 14.723 14.719 14.723zm0-25.949c6.1914 0 11.23 5.0391 11.23 11.23 0 6.1875-5.0391 11.227-11.23 11.227s-11.23-5.0391-11.23-11.23c0-6.1875 5.0391-11.227 11.23-11.227z"/>
 </g>
 </svg>