<svg xmlns="http://www.w3.org/2000/svg" version="1.1" viewBox="-5.0 -10.0 110.0 135.0">
 <path d="m84.57 19.078-14.801-14.801c-0.17969-0.17578-0.41797-0.27734-0.66797-0.27734h-48.312c-3.1094 0-5.6289 2.5312-5.6289 5.6289v80.73c0 3.1094 2.5312 5.6289 5.6289 5.6289h58.422c3.1094 0 5.6289-2.5312 5.6289-5.6289v-70.621c0-0.25-0.10156-0.48828-0.26953-0.66016zm-14.531-11.867 11.602 11.602-7.8398-0.003906c-2.0703 0-3.7617-1.6797-3.7617-3.7617zm9.1719 86.91h-58.422c-2.0703 0-3.7617-1.6797-3.7617-3.7617l0.003906-80.73c0-2.0703 1.6797-3.7617 3.7617-3.7617h47.371v9.1719c0 3.1094 2.5312 5.6289 5.6289 5.6289h9.1719v69.691c-0.003906 2.082-1.6836 3.7617-3.7539 3.7617zm-29.211-43.18c9.3789 0 17-7.6289 17-17 0-9.3789-7.6289-17-17-17-9.3789 0-17 7.6289-17 17 0 9.3672 7.6211 17 17 17zm-10.191-5.8633c1.25-4.8203 5.1016-7.7891 10.191-7.7891s8.9492 2.9688 10.191 7.7891c-2.6914 2.4609-6.2617 3.9805-10.191 3.9805s-7.5-1.5078-10.191-3.9805zm10.191-26.27c8.3398 0 15.129 6.7891 15.129 15.129 0 3.6406-1.2891 6.9805-3.4414 9.5898-0.73828-2.1406-1.9805-3.9688-3.6406-5.3594-2.1602-1.8086-4.9492-2.7617-8.0508-2.7617-3.1016 0-5.8789 0.94922-8.0508 2.7617-1.6602 1.3789-2.8906 3.2188-3.6406 5.3594-2.1484-2.6094-3.4414-5.9609-3.4414-9.5898 0.007813-8.3359 6.7969-15.129 15.137-15.129zm0 15.91c3.5703 0 6.4688-2.8984 6.4688-6.4688s-2.8984-6.4688-6.4688-6.4688-6.4688 2.8984-6.4688 6.4688 2.8984 6.4688 6.4688 6.4688zm0-11.059c2.5312 0 4.5898 2.0586 4.5898 4.5898s-2.0586 4.5898-4.5898 4.5898-4.5898-2.0586-4.5898-4.5898 2.0586-4.5898 4.5898-4.5898zm25.602 33.551c0 0.51953-0.42187 0.94141-0.94141 0.94141l-49.32-0.003906c-0.51953 0-0.94141-0.42188-0.94141-0.94141s0.42187-0.94141 0.94141-0.94141h49.32c0.51953 0.003906 0.94141 0.42578 0.94141 0.94531zm-11.273 24.918c0 0.51953-0.42188 0.94141-0.94141 0.94141h-38.047c-0.51953 0-0.94141-0.42187-0.94141-0.94141 0-0.51953 0.42187-0.94141 0.94141-0.94141h38.051c0.51953 0.003906 0.9375 0.42188 0.9375 0.94141zm11.273-16.609c0 0.51953-0.42187 0.94141-0.94141 0.94141h-49.32c-0.51953 0-0.94141-0.42188-0.94141-0.94141s0.42187-0.94141 0.94141-0.94141h49.32c0.51953 0 0.94141 0.42188 0.94141 0.94141zm0 8.3008c0 0.51953-0.42187 0.94141-0.94141 0.94141h-49.32c-0.51953 0-0.94141-0.42188-0.94141-0.94141 0-0.51953 0.42187-0.94141 0.94141-0.94141h49.32c0.51953 0 0.94141 0.42188 0.94141 0.94141z"/>
</svg>